<svg width="53" height="53" viewBox="0 0 53 53" fill="none" xmlns="http://www.w3.org/2000/svg">
<g clip-path="url(#clip0)">
<path d="M48.1819 0H4.81822C2.16084 0 0 2.16084 0 4.81822V12.0455C0 14.7028 2.16084 16.8637 4.81822 16.8637H48.1819C50.8392 16.8637 53.0001 14.7029 53.0001 12.0455V4.81822C53 2.16084 50.8392 0 48.1819 0ZM9.63633 10.8409C9.63633 11.5067 9.09756 12.0455 8.43175 12.0455C7.76594 12.0455 7.22728 11.5067 7.22728 10.8409V6.02269C7.22728 5.35688 7.76605 4.81811 8.43186 4.81811C9.09767 4.81811 9.63645 5.35688 9.63645 6.02269V10.8409H9.63633ZM14.4546 10.8409C14.4546 11.5067 13.9158 12.0455 13.25 12.0455C12.5842 12.0455 12.0454 11.5067 12.0454 10.8409V6.02269C12.0454 5.35688 12.5842 4.81811 13.25 4.81811C13.9158 4.81811 14.4546 5.35688 14.4546 6.02269V10.8409ZM19.2728 10.8409C19.2728 11.5067 18.734 12.0455 18.0682 12.0455C17.4024 12.0455 16.8636 11.5067 16.8636 10.8409V6.02269C16.8636 5.35688 17.4024 4.81811 18.0682 4.81811C18.734 4.81811 19.2728 5.35688 19.2728 6.02269V10.8409ZM36.1364 10.8409C34.8084 10.8409 33.7273 9.75987 33.7273 8.43186C33.7273 7.10385 34.8084 6.02269 36.1364 6.02269C37.4644 6.02269 38.5454 7.10374 38.5454 8.43175C38.5454 9.75976 37.4644 10.8409 36.1364 10.8409ZM43.3637 10.8409C42.0357 10.8409 40.9546 9.75987 40.9546 8.43186C40.9546 7.10385 42.0357 6.02269 43.3637 6.02269C44.6917 6.02269 45.7727 7.10374 45.7727 8.43175C45.7727 9.75976 44.6917 10.8409 43.3637 10.8409Z" fill="#6C4796"/>
<path d="M48.1819 18.0684H4.81822C2.16084 18.0684 0 20.2292 0 22.8866V30.1139C0 32.7711 2.16084 34.9321 4.81822 34.9321H48.1819C50.8392 34.9321 53.0001 32.7712 53.0001 30.1139V22.8866C53 20.2292 50.8392 18.0684 48.1819 18.0684ZM9.63633 28.9093C9.63633 29.5751 9.09756 30.1139 8.43175 30.1139C7.76594 30.1139 7.22728 29.5751 7.22728 28.9093V24.0911C7.22728 23.4252 7.76605 22.8865 8.43186 22.8865C9.09767 22.8865 9.63645 23.4252 9.63645 24.0911V28.9093H9.63633ZM14.4546 28.9093C14.4546 29.5751 13.9158 30.1139 13.25 30.1139C12.5842 30.1139 12.0454 29.5751 12.0454 28.9093V24.0911C12.0454 23.4252 12.5842 22.8865 13.25 22.8865C13.9158 22.8865 14.4546 23.4252 14.4546 24.0911V28.9093ZM19.2728 28.9093C19.2728 29.5751 18.734 30.1139 18.0682 30.1139C17.4024 30.1139 16.8636 29.5751 16.8636 28.9093V24.0911C16.8636 23.4252 17.4024 22.8865 18.0682 22.8865C18.734 22.8865 19.2728 23.4252 19.2728 24.0911V28.9093ZM36.1364 28.9093C34.8084 28.9093 33.7273 27.8282 33.7273 26.5002C33.7273 25.1722 34.8084 24.0912 36.1364 24.0912C37.4644 24.0912 38.5454 25.1722 38.5454 26.5002C38.5454 27.8282 37.4644 28.9093 36.1364 28.9093ZM43.3637 28.9093C42.0357 28.9093 40.9546 27.8282 40.9546 26.5002C40.9546 25.1722 42.0357 24.0912 43.3637 24.0912C44.6917 24.0912 45.7727 25.1722 45.7727 26.5002C45.7727 27.8282 44.6917 28.9093 43.3637 28.9093Z" fill="#6C4796"/>
<path d="M48.1819 36.1367H4.81822C2.16084 36.1367 0 38.2976 0 40.9549V48.1822C0 50.8395 2.16084 53.0004 4.81822 53.0004H48.1819C50.8392 53.0004 53.0001 50.8396 53.0001 48.1822V40.9549C53 38.2976 50.8392 36.1367 48.1819 36.1367ZM9.63633 46.9776C9.63633 47.6434 9.09756 48.1822 8.43175 48.1822C7.76594 48.1822 7.22728 47.6434 7.22728 46.9776V42.1594C7.22728 41.4936 7.76605 40.9548 8.43186 40.9548C9.09767 40.9548 9.63645 41.4936 9.63645 42.1594V46.9776H9.63633ZM14.4546 46.9776C14.4546 47.6434 13.9158 48.1822 13.25 48.1822C12.5842 48.1822 12.0454 47.6434 12.0454 46.9776V42.1594C12.0454 41.4936 12.5842 40.9548 13.25 40.9548C13.9158 40.9548 14.4546 41.4936 14.4546 42.1594V46.9776ZM19.2728 46.9776C19.2728 47.6434 18.734 48.1822 18.0682 48.1822C17.4024 48.1822 16.8636 47.6434 16.8636 46.9776V42.1594C16.8636 41.4936 17.4024 40.9548 18.0682 40.9548C18.734 40.9548 19.2728 41.4936 19.2728 42.1594V46.9776ZM36.1364 46.9776C34.8084 46.9776 33.7273 45.8966 33.7273 44.5686C33.7273 43.2406 34.8084 42.1595 36.1364 42.1595C37.4644 42.1595 38.5454 43.2406 38.5454 44.5686C38.5454 45.8966 37.4644 46.9776 36.1364 46.9776ZM43.3637 46.9776C42.0357 46.9776 40.9546 45.8966 40.9546 44.5686C40.9546 43.2406 42.0357 42.1595 43.3637 42.1595C44.6917 42.1595 45.7727 43.2406 45.7727 44.5686C45.7727 45.8966 44.6917 46.9776 43.3637 46.9776Z" fill="#6C4796"/>
</g>
<defs>
<clipPath id="clip0">
<rect width="53" height="53" fill="white"/>
</clipPath>
</defs>
</svg>
