<svg width="455" height="309" viewBox="0 0 455 309" fill="none" xmlns="http://www.w3.org/2000/svg">
<path d="M10.4277 181.413C11.3569 180.793 12.5959 180.793 13.6283 181.413C13.9381 181.619 14.1445 181.723 14.4543 181.929C14.764 182.032 14.9705 182.239 15.2802 182.342C16.3127 182.859 17.0354 183.789 17.0354 185.028L17.1386 188.954L29.941 188.541L29.8378 184.615C29.8378 183.479 30.4572 182.446 31.4897 181.826C32.0059 181.516 32.6254 181.206 33.1416 180.793C34.0708 180.173 35.3097 180.07 36.3422 180.586L39.7493 182.446L45.8407 171.185L42.4336 169.325C41.4012 168.809 40.7817 167.672 40.885 166.536C40.885 165.916 40.885 165.296 40.7817 164.676C40.6785 163.54 41.1947 162.404 42.2271 161.784L45.531 159.718L38.8201 148.87L35.5162 150.936C34.587 151.556 33.3481 151.556 32.3156 150.936C32.0059 150.73 31.7994 150.626 31.4897 150.42C31.1799 150.316 30.9734 150.11 30.6637 150.006C29.6313 149.49 28.9086 148.56 28.9086 147.32L28.8053 143.395L16.0029 143.808L16.1062 147.734C16.1062 148.87 15.4867 149.903 14.4543 150.523C13.9381 150.833 13.3186 151.143 12.8024 151.556C11.8732 152.176 10.6342 152.279 9.60177 151.763L6.19469 149.903L0 161.164L3.40708 163.023C4.43953 163.54 5.059 164.676 4.95575 165.813C4.95575 166.433 4.95575 167.053 5.059 167.776C5.16224 168.912 4.64602 170.048 3.61357 170.668L0.309734 172.735L7.02065 183.582L10.4277 181.413ZM13.6283 161.267C16.3127 156.205 22.7139 154.242 27.8761 156.928C32.9351 159.614 34.8968 166.019 32.1091 171.082C29.4248 176.144 23.0236 178.107 17.9646 175.317C12.9056 172.528 10.944 166.329 13.6283 161.267Z" fill="#EBEBEB"/>
<path d="M46.6666 135.853C47.0795 135.13 47.8023 134.716 48.6282 134.82C48.8347 134.82 49.0412 134.82 49.2477 134.82C49.4542 134.82 49.6607 134.82 49.8672 134.82C50.6931 134.82 51.4158 135.13 51.8288 135.853L53.171 138.229L60.9143 133.787L59.5722 131.41C59.1592 130.687 59.1592 129.861 59.6754 129.138C59.8819 128.724 60.1916 128.414 60.2949 128.001C60.7079 127.278 61.4306 126.865 62.1533 126.865H65.0441V117.877H62.2565C61.4306 117.877 60.7079 117.464 60.3981 116.74C60.1916 116.327 59.9851 115.914 59.7787 115.604C59.3657 114.881 59.2624 114.054 59.6754 113.331L61.0176 110.955L53.2742 106.513L51.932 108.889C51.5191 109.612 50.7964 109.922 49.9704 109.922C49.7639 109.922 49.5574 109.922 49.3509 109.922C49.1444 109.922 48.938 109.922 48.7315 109.922C47.9055 109.922 47.1828 109.612 46.7698 108.889L45.4276 106.513L37.6843 110.955L39.0264 113.331C39.4394 114.054 39.4394 114.881 38.9232 115.604C38.7167 116.017 38.407 116.327 38.3037 116.74C37.8908 117.464 37.168 117.877 36.4453 117.877H33.6577V126.865H36.4453C37.2713 126.865 37.994 127.278 38.3037 128.001C38.5102 128.414 38.7167 128.828 38.9232 129.138C39.3362 129.861 39.4394 130.687 39.0264 131.41L37.6843 133.787L45.4276 138.229L46.6666 135.853ZM41.9173 122.319C41.9173 118.29 45.2211 114.984 49.2477 114.984C53.2742 114.984 56.5781 118.29 56.5781 122.319C56.5781 126.348 53.2742 129.654 49.2477 129.654C45.2211 129.654 41.9173 126.452 41.9173 122.319Z" fill="#EBEBEB"/>
<path d="M359.602 33.3694C360.324 33.7826 360.737 34.5058 360.634 35.3323C360.634 35.5389 360.634 35.7455 360.634 35.9521C360.634 36.1587 360.634 36.3654 360.634 36.572C360.634 37.3985 360.324 38.1216 359.602 38.5349L357.227 39.8779L361.667 47.6262L364.041 46.2831C364.764 45.8699 365.59 45.8699 366.313 46.3864C366.726 46.5931 367.035 46.903 367.448 47.0063C368.171 47.4195 368.584 48.1427 368.584 48.8659V51.6552H377.566V48.8659C377.566 48.0394 377.979 47.3162 378.702 47.0063C379.115 46.7997 379.528 46.5931 379.838 46.3864C380.56 45.9732 381.386 45.8699 382.109 46.2831L384.484 47.6262L388.923 39.8779L386.549 38.5349C385.826 38.1216 385.516 37.3985 385.516 36.572C385.516 36.3654 385.516 36.1587 385.516 35.9521C385.516 35.7455 385.516 35.5389 385.516 35.3323C385.516 34.5058 385.826 33.7826 386.549 33.3694L388.923 32.0264L384.484 24.2781L382.109 25.6211C381.386 26.0344 380.56 26.0344 379.838 25.5178C379.425 25.3112 379.115 25.0013 378.702 24.898C377.979 24.4847 377.566 23.7616 377.566 23.0384V20.249H368.584V23.0384C368.584 23.8649 368.171 24.588 367.448 24.898C367.035 25.1046 366.622 25.3112 366.313 25.5178C365.59 25.9311 364.764 26.0344 364.041 25.6211L361.667 24.2781L357.227 32.0264L359.602 33.3694ZM373.127 28.7204C377.153 28.7204 380.457 32.0264 380.457 36.0554C380.457 40.0845 377.153 43.3904 373.127 43.3904C369.1 43.3904 365.796 40.0845 365.796 36.0554C365.796 32.0264 369.1 28.7204 373.127 28.7204Z" fill="#EBEBEB"/>
<path d="M65.1475 20.3516C41.1947 20.3516 21.7847 39.7738 21.7847 63.7417C21.7847 87.7096 41.1947 107.132 65.1475 107.132C89.1003 107.132 108.51 87.7096 108.51 63.7417C108.51 39.7738 89.1003 20.3516 65.1475 20.3516ZM65.1475 83.9905C53.9971 83.9905 44.9115 74.8992 44.9115 63.7417C44.9115 52.5843 53.9971 43.493 65.1475 43.493C76.2979 43.493 85.3835 52.5843 85.3835 63.7417C85.3835 74.8992 76.2979 83.9905 65.1475 83.9905Z" fill="#A77CD9"/>
<path d="M73.5103 22.1084H56.7847L57.7139 10.3311H72.5811L73.5103 22.1084Z" fill="#A77CD9"/>
<path d="M41.7108 27.7902L29.9409 39.5676L22.3008 30.5796L32.7285 20.042L41.7108 27.7902Z" fill="#A77CD9"/>
<path d="M23.2299 54.1348V70.871L11.46 69.9412V55.0646L23.2299 54.1348Z" fill="#A77CD9"/>
<path d="M28.9084 85.9541L40.6783 97.7314L31.696 105.376L21.165 94.9421L28.9084 85.9541Z" fill="#A77CD9"/>
<path d="M55.3394 104.446H71.9618L71.0326 116.224H56.1653L55.3394 104.446Z" fill="#A77CD9"/>
<path d="M87.0352 98.7646L98.8051 86.9873L106.445 95.9753L96.0174 106.513L87.0352 98.7646Z" fill="#A77CD9"/>
<path d="M105.516 72.3165V55.6836L117.286 56.6134V71.49L105.516 72.3165Z" fill="#A77CD9"/>
<path d="M99.8378 40.601L88.0679 28.8236L97.0502 21.1787L107.581 31.613L99.8378 40.601Z" fill="#A77CD9"/>
<path d="M136.696 151.245C108.098 151.245 84.8675 174.49 84.8675 203.107C84.8675 231.724 108.098 254.969 136.696 254.969C165.295 254.969 188.525 231.724 188.525 203.107C188.525 174.49 165.295 151.245 136.696 151.245ZM136.696 243.914C114.086 243.914 95.8115 225.629 95.8115 203.107C95.8115 180.482 114.086 162.196 136.696 162.196C159.204 162.196 177.478 180.482 177.478 203.107C177.478 225.629 159.307 243.914 136.696 243.914ZM136.696 151.245C108.098 151.245 84.8675 174.49 84.8675 203.107C84.8675 231.724 108.098 254.969 136.696 254.969C165.295 254.969 188.525 231.724 188.525 203.107C188.525 174.49 165.295 151.245 136.696 151.245ZM136.696 243.914C114.086 243.914 95.8115 225.629 95.8115 203.107C95.8115 180.482 114.086 162.196 136.696 162.196C159.204 162.196 177.478 180.482 177.478 203.107C177.478 225.629 159.307 243.914 136.696 243.914ZM136.696 115.604C88.3778 115.604 49.248 154.758 49.248 203.107C49.248 251.456 88.3778 290.611 136.696 290.611C184.912 290.611 224.145 251.456 224.145 203.107C224.145 154.758 185.015 115.604 136.696 115.604ZM136.696 260.031C105.31 260.031 79.8085 234.513 79.8085 203.107C79.8085 171.701 105.31 146.183 136.696 146.183C167.98 146.183 193.481 171.701 193.481 203.107C193.584 234.513 168.083 260.031 136.696 260.031ZM136.696 151.245C108.098 151.245 84.8675 174.49 84.8675 203.107C84.8675 231.724 108.098 254.969 136.696 254.969C165.295 254.969 188.525 231.724 188.525 203.107C188.525 174.49 165.295 151.245 136.696 151.245ZM136.696 243.914C114.086 243.914 95.8115 225.629 95.8115 203.107C95.8115 180.482 114.086 162.196 136.696 162.196C159.204 162.196 177.478 180.482 177.478 203.107C177.478 225.629 159.307 243.914 136.696 243.914Z" fill="#A77CD9"/>
<path d="M146.917 117.257H126.991L128.953 97.2148H144.956L146.917 117.257Z" fill="#A77CD9"/>
<path d="M102.625 123.559L85.3833 133.58L77.0205 115.294L90.9586 107.236L102.625 123.559Z" fill="#A77CD9"/>
<path d="M67.5223 151.246L57.5075 168.602L41.1948 156.928L49.1447 142.981L67.5223 151.246Z" fill="#A77CD9"/>
<path d="M50.8996 192.88V212.819L30.8701 210.856V194.843L50.8996 192.88Z" fill="#A77CD9"/>
<path d="M57.1975 237.2L67.2122 254.453L48.9379 262.821L40.8848 248.874L57.1975 237.2Z" fill="#A77CD9"/>
<path d="M84.867 272.325L102.212 282.346L90.5455 298.669L76.6074 290.714L84.867 272.325Z" fill="#A77CD9"/>
<path d="M126.475 288.958H146.401L144.439 309H128.436L126.475 288.958Z" fill="#A77CD9"/>
<path d="M170.767 282.656L188.112 272.635L196.371 290.921L182.433 298.979L170.767 282.656Z" fill="#A77CD9"/>
<path d="M205.87 254.969L215.885 237.613L232.198 249.287L224.248 263.234L205.87 254.969Z" fill="#A77CD9"/>
<path d="M222.493 213.335V193.396L242.522 195.359V211.372L222.493 213.335Z" fill="#A77CD9"/>
<path d="M216.194 169.015L206.18 151.659L224.454 143.395L232.507 157.341L216.194 169.015Z" fill="#A77CD9"/>
<path d="M188.525 133.89L171.18 123.869L182.846 107.546L196.784 115.501L188.525 133.89Z" fill="#A77CD9"/>
<path d="M424.13 100.727C423.097 89.8797 413.496 81.8216 402.655 82.8547C391.814 83.8878 383.761 93.4956 384.794 104.446C385.826 115.294 395.428 123.352 406.269 122.319C417.109 121.286 425.162 111.678 424.13 100.727ZM406.062 119.943C396.46 120.873 387.994 113.848 387.168 104.24C386.239 94.632 393.26 86.1606 402.862 85.3341C412.463 84.4043 420.826 91.4294 421.755 101.037C422.581 110.542 415.561 119.013 406.062 119.943ZM424.13 100.727C423.097 89.8797 413.496 81.8216 402.655 82.8547C391.814 83.8878 383.761 93.4956 384.794 104.446C385.826 115.294 395.428 123.352 406.269 122.319C417.109 121.286 425.162 111.678 424.13 100.727ZM406.062 119.943C396.46 120.873 387.994 113.848 387.168 104.24C386.239 94.632 393.26 86.1606 402.862 85.3341C412.463 84.4043 420.826 91.4294 421.755 101.037C422.581 110.542 415.561 119.013 406.062 119.943ZM424.13 100.727C423.097 89.8797 413.496 81.8216 402.655 82.8547C391.814 83.8878 383.761 93.4956 384.794 104.446C385.826 115.294 395.428 123.352 406.269 122.319C417.109 121.286 425.162 111.678 424.13 100.727ZM406.062 119.943C396.46 120.873 387.994 113.848 387.168 104.24C386.239 94.632 393.26 86.1606 402.862 85.3341C412.463 84.4043 420.826 91.4294 421.755 101.037C422.581 110.542 415.561 119.013 406.062 119.943ZM445.915 98.7644C443.746 75.8296 423.51 58.9901 400.59 61.0563C377.67 63.2258 360.841 83.4745 362.906 106.409C365.074 129.344 385.31 146.184 408.23 144.117C431.151 142.051 448.083 121.699 445.915 98.7644ZM406.578 125.418C394.086 126.555 382.832 117.36 381.696 104.756C380.561 92.1526 389.749 80.9951 402.345 79.8587C414.838 78.7223 425.988 87.9169 427.227 100.521C428.363 113.021 419.071 124.179 406.578 125.418ZM402.552 82.8547C391.711 83.8878 383.658 93.4956 384.69 104.446C385.723 115.294 395.325 123.352 406.165 122.319C417.006 121.286 425.059 111.678 424.027 100.727C423.098 89.8797 413.496 81.9249 402.552 82.8547ZM406.062 119.943C396.46 120.873 387.994 113.848 387.168 104.24C386.239 94.632 393.26 86.1606 402.862 85.3341C412.463 84.4043 420.826 91.4294 421.755 101.037C422.581 110.542 415.561 119.013 406.062 119.943ZM424.13 100.727C423.097 89.8797 413.496 81.8216 402.655 82.8547C391.814 83.8878 383.761 93.4956 384.794 104.446C385.826 115.294 395.428 123.352 406.269 122.319C417.109 121.286 425.162 111.678 424.13 100.727ZM406.062 119.943C396.46 120.873 387.994 113.848 387.168 104.24C386.239 94.632 393.26 86.1606 402.862 85.3341C412.463 84.4043 420.826 91.4294 421.755 101.037C422.581 110.542 415.561 119.013 406.062 119.943ZM424.13 100.727C423.097 89.8797 413.496 81.8216 402.655 82.8547C391.814 83.8878 383.761 93.4956 384.794 104.446C385.826 115.294 395.428 123.352 406.269 122.319C417.109 121.286 425.162 111.678 424.13 100.727ZM406.062 119.943C396.46 120.873 387.994 113.848 387.168 104.24C386.239 94.632 393.26 86.1606 402.862 85.3341C412.463 84.4043 420.826 91.4294 421.755 101.037C422.581 110.542 415.561 119.013 406.062 119.943Z" fill="#A77CD9"/>
<path d="M408.747 62.0889L392.744 63.5352L392.537 52.1712L406.785 50.8281L408.747 62.0889Z" fill="#A77CD9"/>
<path d="M378.805 70.2507L368.584 82.6479L360.428 74.693L369.513 63.7422L378.805 70.2507Z" fill="#A77CD9"/>
<path d="M363.525 97.2139L364.971 113.124L353.614 113.33L352.271 99.1768L363.525 97.2139Z" fill="#A77CD9"/>
<path d="M371.682 127.071L384.071 137.299L376.121 145.564L365.177 136.369L371.682 127.071Z" fill="#A77CD9"/>
<path d="M398.628 142.464L414.528 140.914L414.735 152.381L400.59 153.621L398.628 142.464Z" fill="#A77CD9"/>
<path d="M428.466 134.199L438.688 121.905L446.844 129.86L437.758 140.811L428.466 134.199Z" fill="#A77CD9"/>
<path d="M443.849 107.339L442.301 91.3258L453.761 91.1191L455 105.376L443.849 107.339Z" fill="#A77CD9"/>
<path d="M435.59 77.3784L423.304 67.1507L431.254 58.9893L442.198 68.0805L435.59 77.3784Z" fill="#A77CD9"/>
<path d="M296.416 72.1104C265.752 72.1104 240.87 97.008 240.87 127.691C240.87 158.374 265.752 183.169 296.416 183.169C327.08 183.169 351.858 158.271 351.858 127.691C351.858 96.9047 327.08 72.1104 296.416 72.1104ZM296.416 153.519C282.065 153.519 270.501 141.948 270.501 127.588C270.501 113.228 282.065 101.657 296.416 101.657C310.767 101.657 322.33 113.228 322.33 127.588C322.33 141.948 310.664 153.519 296.416 153.519Z" fill="#A77CD9"/>
<path d="M307.05 74.3831H285.679L286.918 59.2998H305.915L307.05 74.3831Z" fill="#A77CD9"/>
<path d="M266.475 81.615L251.298 96.6983L241.49 85.1276L254.912 71.6973L266.475 81.615Z" fill="#A77CD9"/>
<path d="M242.832 115.397V136.783L227.655 135.543V116.637L242.832 115.397Z" fill="#A77CD9"/>
<path d="M249.956 156.102L265.029 171.185L253.569 180.999L240.147 167.569L249.956 156.102Z" fill="#A77CD9"/>
<path d="M283.82 179.759H305.088L303.953 194.842H284.956L283.82 179.759Z" fill="#A77CD9"/>
<path d="M324.396 172.528L339.469 157.444L349.381 168.912L335.959 182.342L324.396 172.528Z" fill="#A77CD9"/>
<path d="M348.038 138.642V117.36L363.112 118.497V137.506L348.038 138.642Z" fill="#A77CD9"/>
<path d="M340.811 98.041L325.737 82.9578L337.301 73.04L350.723 86.4703L340.811 98.041Z" fill="#A77CD9"/>
<path d="M333.584 86.6772C337.176 86.6772 340.088 83.7632 340.088 80.1687C340.088 76.5741 337.176 73.6602 333.584 73.6602C329.992 73.6602 327.08 76.5741 327.08 80.1687C327.08 83.7632 329.992 86.6772 333.584 86.6772Z" fill="#A77CD9"/>
<path d="M340.398 85.6445H326.77V87.6074H340.398V85.6445Z" fill="#A77CD9"/>
<path opacity="0.1" d="M340.398 85.6445H326.77V87.6074H340.398V85.6445Z" fill="#A77CD9"/>
<path d="M347.419 112.814H319.749V114.777H347.419V112.814Z" fill="#A77CD9"/>
<path opacity="0.1" d="M347.419 112.814H319.749V114.777H347.419V112.814Z" fill="#A77CD9"/>
<path d="M347.419 118.29H319.749V120.253H347.419V118.29Z" fill="#A77CD9"/>
<path opacity="0.1" d="M347.419 118.29H319.749V120.253H347.419V118.29Z" fill="#A77CD9"/>
<path d="M346.386 114.777H320.782V118.29H346.386V114.777Z" fill="#A77CD9"/>
<path d="M339.159 87.6074H328.009V89.5703H339.159V87.6074Z" fill="#A77CD9"/>
<path d="M344.941 112.815H322.227C322.227 112.815 327.389 107.65 328.525 101.451C329.454 96.1821 329.867 89.5703 329.867 89.5703H337.301C337.301 89.5703 337.714 96.1821 338.643 101.451C339.779 107.546 344.941 112.815 344.941 112.815Z" fill="#A77CD9"/>
<path d="M25.3983 18.2861L24.7788 17.4597C25.8113 16.6332 26.534 16.3232 26.534 16.3232L27.0502 17.253C27.0502 17.1497 26.4307 17.563 25.3983 18.2861Z" fill="#1B0632"/>
<path d="M295.9 196.805C294.455 196.805 293.112 196.702 291.77 196.702L291.873 195.669C293.216 195.772 294.558 195.772 296.003 195.772L295.9 196.805ZM300.03 196.702V195.669C301.372 195.566 302.817 195.462 304.056 195.359L304.16 196.392C302.817 196.599 301.475 196.702 300.03 196.702ZM287.64 196.289C286.298 196.082 284.853 195.979 283.511 195.669L283.717 194.636C285.059 194.842 286.401 195.049 287.744 195.256L287.64 196.289ZM308.289 195.772L308.083 194.739C309.425 194.429 310.767 194.119 312.006 193.809L312.316 194.842C310.974 195.152 309.632 195.462 308.289 195.772ZM279.484 194.946C278.142 194.636 276.8 194.223 275.457 193.809L275.767 192.776C277.006 193.189 278.348 193.499 279.69 193.809L279.484 194.946ZM316.239 193.396L315.826 192.466C317.065 191.95 318.304 191.433 319.543 190.813L320.059 191.743C318.82 192.26 317.581 192.88 316.239 193.396ZM271.534 192.466C270.295 191.95 268.953 191.433 267.714 190.813L268.127 189.884C269.366 190.503 270.605 191.02 271.844 191.536L271.534 192.466ZM323.57 189.574L322.95 188.747C324.086 188.024 325.118 187.197 326.254 186.268L326.873 187.094C325.841 187.921 324.705 188.747 323.57 189.574ZM263.997 188.85C262.758 188.127 261.623 187.404 260.487 186.681L261.106 185.854C262.242 186.578 263.378 187.301 264.617 188.024L263.997 188.85ZM257.08 184.305C256.047 183.478 254.912 182.549 253.879 181.619L254.602 180.792C255.634 181.722 256.667 182.549 257.803 183.375L257.08 184.305ZM329.971 184.201L329.248 183.478C330.177 182.549 331.106 181.515 331.932 180.482L332.758 181.102C331.932 182.239 331.003 183.272 329.971 184.201ZM250.885 178.829C249.956 177.9 248.924 176.866 247.994 175.833L248.717 175.11C249.646 176.143 250.575 177.176 251.608 178.106L250.885 178.829ZM335.339 177.796L334.514 177.176C335.236 176.04 336.062 174.904 336.682 173.767L337.611 174.284C336.785 175.523 336.062 176.66 335.339 177.796ZM245.207 172.734C244.381 171.701 243.452 170.668 242.626 169.531L243.452 168.912C244.278 170.048 245.207 171.081 246.033 172.114L245.207 172.734ZM339.573 170.668L338.643 170.151C339.263 169.015 339.882 167.775 340.398 166.432L341.328 166.845C340.811 168.188 340.192 169.428 339.573 170.668ZM240.044 166.226C239.219 165.089 238.393 163.953 237.567 162.816L238.393 162.196C239.219 163.333 239.941 164.469 240.767 165.502L240.044 166.226ZM343.083 163.126L342.154 162.713C342.67 161.473 343.186 160.234 343.599 158.891L344.528 159.2C344.012 160.544 343.496 161.887 343.083 163.126ZM235.295 159.407C234.469 158.271 233.747 157.134 233.024 155.998L233.85 155.378C234.573 156.514 235.398 157.651 236.121 158.787L235.295 159.407ZM345.87 155.275L344.941 154.965C345.354 153.622 345.767 152.382 346.18 151.039L347.213 151.349C346.696 152.692 346.283 154.035 345.87 155.275ZM230.649 152.589L228.378 149.179L229.204 148.56L231.475 151.969L230.649 152.589ZM348.348 147.423L347.316 147.113C347.729 145.77 348.039 144.427 348.452 143.084L349.484 143.394C349.071 144.737 348.761 146.08 348.348 147.423ZM226.106 145.667C225.384 144.53 224.558 143.394 223.732 142.258L224.558 141.638C225.384 142.774 226.106 143.911 226.932 145.047L226.106 145.667ZM350.516 139.365L349.484 139.055C349.794 137.712 350.207 136.369 350.516 135.026L351.549 135.233C351.239 136.679 350.826 138.022 350.516 139.365ZM221.357 138.848C220.531 137.712 219.705 136.576 218.879 135.542L219.705 134.923C220.531 136.059 221.357 137.092 222.183 138.229L221.357 138.848ZM216.401 132.237C215.575 131.1 214.646 130.067 213.82 129.034L214.646 128.311C215.472 129.344 216.401 130.377 217.331 131.513L216.401 132.237ZM352.478 131.307L351.446 131.1L352.478 127.071L353.511 127.278L352.478 131.307ZM211.033 126.038C210.103 125.005 209.174 124.075 208.142 123.042L208.865 122.319C209.794 123.249 210.826 124.282 211.755 125.315L211.033 126.038ZM354.543 123.352L353.511 123.145C353.82 121.802 354.13 120.459 354.543 119.116L355.575 119.323C355.162 120.666 354.853 122.009 354.543 123.352ZM56.1654 120.872C54.8232 120.872 53.3778 120.769 52.0356 120.666L52.1389 119.633C53.481 119.736 54.8232 119.839 56.2687 119.839L56.1654 120.872ZM60.2952 120.769L60.192 119.736C61.5341 119.633 62.8763 119.529 64.2185 119.323L64.3218 120.356C63.0828 120.563 61.7406 120.666 60.2952 120.769ZM205.251 120.253C204.219 119.323 203.186 118.393 202.154 117.567L202.773 116.74C203.806 117.567 204.941 118.496 205.974 119.426L205.251 120.253ZM47.9058 120.046C46.5636 119.839 45.1182 119.529 43.776 119.22L43.9825 118.186C45.3247 118.496 46.6669 118.806 48.0091 119.013L47.9058 120.046ZM68.5548 119.633L68.3483 118.6C69.6905 118.29 71.0327 117.98 72.2716 117.567L72.5813 118.6C71.3424 119.013 69.897 119.426 68.5548 119.633ZM39.7495 118.186C38.4073 117.773 37.0651 117.257 35.8262 116.843L36.2392 115.914C37.4781 116.43 38.8203 116.843 40.0592 117.257L39.7495 118.186ZM76.6079 117.463L76.2982 116.43C77.6403 116.017 78.9825 115.604 80.2215 115.19L80.5312 116.224C79.189 116.637 77.9501 117.05 76.6079 117.463ZM356.505 115.294L355.472 114.984C355.782 113.641 356.195 112.298 356.505 110.955L357.537 111.265C357.227 112.608 356.918 113.951 356.505 115.294ZM198.85 115.087C197.714 114.261 196.578 113.537 195.443 112.814L195.959 111.988C197.095 112.711 198.23 113.537 199.366 114.261L198.85 115.087ZM32.0061 115.087C30.7672 114.467 29.5282 113.847 28.2893 113.124L28.8055 112.194C29.9412 112.918 31.1802 113.537 32.4191 114.054L32.0061 115.087ZM84.4545 114.984L84.1448 113.951C85.487 113.537 86.7259 113.124 88.0681 112.711L88.3778 113.744C87.1389 114.157 85.7967 114.571 84.4545 114.984ZM92.3011 112.401L91.9914 111.368L95.9147 110.128L96.2244 111.161L92.3011 112.401ZM24.779 110.955C23.6433 110.128 22.5076 109.302 21.3719 108.475L21.9914 107.649C23.0238 108.475 24.1595 109.302 25.2952 110.025L24.779 110.955ZM191.932 110.748C190.693 110.128 189.558 109.508 188.319 108.889L188.732 107.959C189.971 108.579 191.21 109.198 192.449 109.818L191.932 110.748ZM100.148 109.922L99.838 108.889C101.18 108.475 102.522 108.062 103.761 107.649L104.071 108.682C102.832 109.095 101.49 109.508 100.148 109.922ZM108.098 107.442L107.788 106.409C109.13 105.996 110.472 105.583 111.711 105.273L112.021 106.306C110.679 106.616 109.44 107.029 108.098 107.442ZM358.776 107.339L357.744 107.029C358.157 105.686 358.57 104.343 358.983 103.103L360.015 103.413C359.499 104.653 359.189 105.996 358.776 107.339ZM184.602 107.236C183.466 106.822 182.331 106.306 181.092 105.893L180.679 105.789L180.988 104.859L181.298 104.963C182.537 105.376 183.776 105.893 184.912 106.306L184.602 107.236ZM18.2745 105.789C17.2421 104.859 16.3129 103.826 15.3837 102.793L16.1064 102.07C17.0356 103.103 17.9648 104.033 18.9973 104.963L18.2745 105.789ZM116.047 105.169L115.738 104.136C117.08 103.826 118.422 103.413 119.764 103.103L119.971 104.136C118.629 104.55 117.39 104.859 116.047 105.169ZM176.859 104.55C175.516 104.136 174.174 103.826 172.935 103.413L173.245 102.38C174.587 102.69 175.929 103.103 177.272 103.516L176.859 104.55ZM123.997 103.206L123.791 102.173C125.133 101.863 126.475 101.554 127.817 101.347L128.024 102.38C126.682 102.69 125.339 103 123.997 103.206ZM168.806 102.483C167.463 102.173 166.121 101.967 164.779 101.657L164.985 100.624C166.328 100.83 167.67 101.14 169.012 101.45L168.806 102.483ZM132.154 101.76L131.947 100.727C133.289 100.52 134.735 100.314 136.077 100.107L136.18 101.14C134.838 101.347 133.496 101.554 132.154 101.76ZM160.752 101.037C159.41 100.83 158.068 100.727 156.623 100.624L156.726 99.5906C158.068 99.6939 159.514 99.7973 160.856 100.004L160.752 101.037ZM140.31 100.727L140.207 99.6939C141.549 99.5906 142.994 99.4873 144.337 99.384V100.417C142.994 100.52 141.652 100.624 140.31 100.727ZM152.596 100.417C151.357 100.417 150.221 100.314 148.983 100.314H148.466V99.2807H148.983C150.221 99.2807 151.357 99.2807 152.596 99.384V100.417ZM12.6993 99.5906C11.8734 98.4542 11.0474 97.3178 10.3247 96.1814L11.1507 95.6649C11.8734 96.8013 12.6993 97.9377 13.5253 98.9708L12.6993 99.5906ZM361.151 99.4873L360.221 99.1774C360.634 97.8344 361.151 96.5946 361.564 95.2516L362.493 95.5615C362.08 96.9046 361.667 98.1443 361.151 99.4873ZM8.05331 92.5656C7.43384 91.3258 6.81437 90.0861 6.1949 88.8464L7.22735 88.4332C7.74357 89.6729 8.36304 90.9126 8.98251 92.1523L8.05331 92.5656ZM364.042 91.7391L363.112 91.3258C363.629 89.9828 364.145 88.7431 364.661 87.5034L365.59 87.9166C364.971 89.1563 364.455 90.3961 364.042 91.7391ZM4.74947 84.9206C4.33649 83.5776 3.92351 82.2346 3.61378 80.8915L4.64623 80.6849C4.95596 82.0279 5.36894 83.371 5.78192 84.6107L4.74947 84.9206ZM367.242 84.1975L366.313 83.7842C366.932 82.5445 367.552 81.2015 368.171 80.0651L369.101 80.5816C368.481 81.6147 367.862 82.8544 367.242 84.1975ZM371.062 76.8625L370.133 76.3459C370.856 75.1062 371.578 73.9698 372.301 72.8334L373.127 73.3499C372.508 74.4863 371.785 75.726 371.062 76.8625ZM2.78782 76.8625C2.68457 76.1393 2.58133 75.4161 2.47809 74.5896C2.37484 73.9698 2.37484 73.3499 2.2716 72.7301L3.30404 72.6267C3.40729 73.2466 3.40729 73.8665 3.51053 74.4863C3.61378 75.2095 3.71702 75.9327 3.82027 76.6558L2.78782 76.8625ZM375.605 70.044L374.779 69.4241C375.605 68.2877 376.431 67.2546 377.36 66.1182L378.186 66.7381C377.257 67.8745 376.431 68.9076 375.605 70.044ZM1.85862 68.5977C1.75537 67.4613 1.75537 66.2215 1.75537 65.0851V64.362H2.78782V65.0851C2.78782 66.2215 2.78782 67.3579 2.89106 68.4944L1.85862 68.5977ZM380.87 63.7421L380.148 63.0189C381.077 61.9858 382.109 61.056 383.142 60.1262L383.865 60.8494C382.729 61.7792 381.8 62.8123 380.87 63.7421ZM2.99431 60.3329L1.96186 60.2296C2.06511 58.8865 2.16835 57.4402 2.37484 56.0972L3.40729 56.2005C3.30404 57.6468 3.09755 58.9898 2.99431 60.3329ZM386.859 58.2667L386.239 57.4402C387.272 56.6137 388.407 55.7872 389.543 54.9608L390.162 55.7872C389.027 56.6137 387.891 57.4402 386.859 58.2667ZM393.57 53.6177L393.053 52.6879C394.189 51.9648 395.428 51.3449 396.667 50.725L397.183 51.6548C395.944 52.2747 394.705 52.8946 393.57 53.6177ZM4.13 52.2747L3.09755 52.0681C3.40729 50.725 3.71702 49.382 4.02676 48.039L5.05921 48.3489C4.74947 49.5886 4.33649 50.9317 4.13 52.2747ZM6.29814 44.3198L5.36894 44.0099C5.78192 42.6669 6.29814 41.4271 6.91761 40.0841L7.84682 40.4974C7.22735 41.7371 6.71112 43.0801 6.29814 44.3198ZM9.60198 36.8815L8.67278 36.365C9.29225 35.1252 10.015 33.8855 10.7377 32.7491L11.5636 33.2657C10.8409 34.4021 10.2214 35.6418 9.60198 36.8815ZM13.9383 29.8564L13.1123 29.2366C13.9383 28.1002 14.7642 27.0671 15.6934 25.9307L16.5194 26.5505C15.5902 27.6869 14.661 28.8233 13.9383 29.8564ZM19.2038 23.6578L18.481 22.9347C19.5135 21.9016 20.4427 20.9718 21.4751 20.042L22.1979 20.8685C21.1654 21.695 20.133 22.7281 19.2038 23.6578Z" fill="#1B0632"/>
<path d="M401.313 49.692L400.9 48.7622C401.519 48.4523 402.139 48.2457 402.862 48.0391L403.275 48.9689C402.552 49.1755 401.932 49.4854 401.313 49.692Z" fill="#1B0632"/>
<path d="M26.7405 25.2075C31.4162 25.2075 35.2066 21.4147 35.2066 16.7361C35.2066 12.0574 31.4162 8.26465 26.7405 8.26465C22.0648 8.26465 18.2744 12.0574 18.2744 16.7361C18.2744 21.4147 22.0648 25.2075 26.7405 25.2075Z" fill="#1B0632"/>
<path d="M174.174 111.162C178.85 111.162 182.64 107.369 182.64 102.69C182.64 98.0115 178.85 94.2188 174.174 94.2188C169.498 94.2188 165.708 98.0115 165.708 102.69C165.708 107.369 169.498 111.162 174.174 111.162Z" fill="#1B0632"/>
<path d="M402.965 56.9233C407.64 56.9233 411.431 53.1305 411.431 48.4519C411.431 43.7733 407.64 39.9805 402.965 39.9805C398.289 39.9805 394.499 43.7733 394.499 48.4519C394.499 53.1305 398.289 56.9233 402.965 56.9233Z" fill="#1B0632"/>
<path d="M296.726 206.414C301.401 206.414 305.192 202.621 305.192 197.942C305.192 193.263 301.401 189.471 296.726 189.471C292.05 189.471 288.26 193.263 288.26 197.942C288.26 202.621 292.05 206.414 296.726 206.414Z" fill="#1B0632"/>
</svg>
